<svg xmlns="http://www.w3.org/2000/svg" role="img" aria-labelledby="title" viewBox="0 0 920 360" width="920" height="360"><title id="title">How long the JS thread is blocked during the benchmark</title><rect width="100%" height="100%" fill="#1a1a19"/><g font-family="system-ui,-apple-system,BlinkMacSystemFont,Segoe UI,sans-serif"><text x="20" y="24" fill="#ffffff" font-size="14" font-weight="700">How long the JS thread is blocked during the benchmark</text><g aria-label="Legend" font-size="12" fill="#c3c2b7"><line x1="560" x2="578" y1="20" y2="20" stroke="#d95926" stroke-width="3"/><text x="584" y="24">JS thread baseline</text><line x1="742" x2="760" y1="20" y2="20" stroke="#3987e5" stroke-width="3"/><text x="766" y="24">Worklet (this library)</text></g><text x="20" y="54" fill="#ffffff" font-size="13" font-weight="700">iOS</text><text x="20" y="70" fill="#c3c2b7" font-size="12">iPhone simulator · 2026-09-05</text><g aria-label="Y axis"><line x1="62" x2="444" y1="308" y2="308" stroke="#2e2e2c"/><text x="56" y="312" text-anchor="end" fill="#c3c2b7" font-size="12" data-axis-tick="0">0</text><line x1="62" x2="444" y1="264.8" y2="264.8" stroke="#2e2e2c"/><text x="56" y="268.8" text-anchor="end" fill="#c3c2b7" font-size="12" data-axis-tick="200">200</text><line x1="62" x2="444" y1="221.6" y2="221.6" stroke="#2e2e2c"/><text x="56" y="225.6" text-anchor="end" fill="#c3c2b7" font-size="12" data-axis-tick="400">400</text><line x1="62" x2="444" y1="178.4" y2="178.4" stroke="#2e2e2c"/><text x="56" y="182.4" text-anchor="end" fill="#c3c2b7" font-size="12" data-axis-tick="600">600</text><line x1="62" x2="444" y1="135.2" y2="135.2" stroke="#2e2e2c"/><text x="56" y="139.2" text-anchor="end" fill="#c3c2b7" font-size="12" data-axis-tick="800">800</text><line x1="62" x2="444" y1="92" y2="92" stroke="#2e2e2c"/><text x="56" y="96" text-anchor="end" fill="#c3c2b7" font-size="12" data-axis-tick="1000">1000</text><text transform="translate(28 210) rotate(-90)" fill="#c3c2b7" font-size="12">ms</text></g><path d="M134.5,308V267.93653999948503Q134.5,263.93653999948503 138.5,263.93653999948503H152.5Q156.5,263.93653999948503 156.5,267.93653999948503V308Z" fill="#d95926" aria-label="JS thread baseline: 204 ms"/><text x="145.5" y="258.93653999948503" text-anchor="middle" fill="#ffffff" font-size="12">204 ms</text><path d="M158.5,308V294.4178969964981Q158.5,290.4178969964981 162.5,290.4178969964981H176.5Q180.5,290.4178969964981 180.5,294.4178969964981V308Z" fill="#3987e5" aria-label="Worklet (this library): 81.4 ms"/><text x="169.5" y="285.4178969964981" text-anchor="middle" fill="#ffffff" font-size="12">81.4 ms</text><text x="157.5" y="330" text-anchor="middle" fill="#c3c2b7" font-size="12">max lag</text><path d="M325.5,308V134.11024837875368Q325.5,130.11024837875368 329.5,130.11024837875368H343.5Q347.5,130.11024837875368 347.5,134.11024837875368V308Z" fill="#d95926" aria-label="JS thread baseline: 823.6 ms"/><text x="336.5" y="125.11024837875368" text-anchor="middle" fill="#ffffff" font-size="12">823.6 ms</text><path d="M349.5,308V241.6007753763199Q349.5,237.6007753763199 353.5,237.6007753763199H367.5Q371.5,237.6007753763199 371.5,241.6007753763199V308Z" fill="#3987e5" aria-label="Worklet (this library): 325.9 ms"/><text x="360.5" y="232.6007753763199" text-anchor="middle" fill="#ffffff" font-size="12">325.9 ms</text><text x="348.5" y="330" text-anchor="middle" fill="#c3c2b7" font-size="12">total blocked</text><text x="470" y="54" fill="#ffffff" font-size="13" font-weight="700">Android</text><text x="470" y="70" fill="#c3c2b7" font-size="12">Pixel Tablet API 35 emulator · 2026-09-05</text><g aria-label="Y axis"><line x1="512" x2="894" y1="308" y2="308" stroke="#2e2e2c"/><text x="506" y="312" text-anchor="end" fill="#c3c2b7" font-size="12" data-axis-tick="0">0</text><line x1="512" x2="894" y1="264.8" y2="264.8" stroke="#2e2e2c"/><text x="506" y="268.8" text-anchor="end" fill="#c3c2b7" font-size="12" data-axis-tick="200">200</text><line x1="512" x2="894" y1="221.6" y2="221.6" stroke="#2e2e2c"/><text x="506" y="225.6" text-anchor="end" fill="#c3c2b7" font-size="12" data-axis-tick="400">400</text><line x1="512" x2="894" y1="178.4" y2="178.4" stroke="#2e2e2c"/><text x="506" y="182.4" text-anchor="end" fill="#c3c2b7" font-size="12" data-axis-tick="600">600</text><line x1="512" x2="894" y1="135.2" y2="135.2" stroke="#2e2e2c"/><text x="506" y="139.2" text-anchor="end" fill="#c3c2b7" font-size="12" data-axis-tick="800">800</text><line x1="512" x2="894" y1="92" y2="92" stroke="#2e2e2c"/><text x="506" y="96" text-anchor="end" fill="#c3c2b7" font-size="12" data-axis-tick="1000">1000</text><text transform="translate(478 210) rotate(-90)" fill="#c3c2b7" font-size="12">ms</text></g><path d="M584.5,308V286.3716719280146Q584.5,282.3716719280146 588.5,282.3716719280146H602.5Q606.5,282.3716719280146 606.5,286.3716719280146V308Z" fill="#d95926" aria-label="JS thread baseline: 118.6 ms"/><text x="595.5" y="277.3716719280146" text-anchor="middle" fill="#ffffff" font-size="12">118.6 ms</text><path d="M608.5,308V303.48605392799993Q608.5,299.48605392799993 612.5,299.48605392799993H626.5Q630.5,299.48605392799993 630.5,303.48605392799993V308Z" fill="#3987e5" aria-label="Worklet (this library): 39.4 ms"/><text x="619.5" y="294.48605392799993" text-anchor="middle" fill="#ffffff" font-size="12">39.4 ms</text><text x="607.5" y="330" text-anchor="middle" fill="#c3c2b7" font-size="12">max lag</text><path d="M775.5,308V271.5774178560069Q775.5,267.5774178560069 779.5,267.5774178560069H793.5Q797.5,267.5774178560069 797.5,271.5774178560069V308Z" fill="#d95926" aria-label="JS thread baseline: 187.1 ms"/><text x="777.5" y="257.98728500000203" text-anchor="start" fill="#ffffff" font-size="12">187.1 ms</text><path d="M799.5,308V282.98728500000203Q799.5,278.98728500000203 803.5,278.98728500000203H817.5Q821.5,278.98728500000203 821.5,282.98728500000203V308Z" fill="#3987e5" aria-label="Worklet (this library): 134.3 ms"/><text x="819.5" y="273.98728500000203" text-anchor="end" fill="#ffffff" font-size="12">134.3 ms</text><text x="798.5" y="330" text-anchor="middle" fill="#c3c2b7" font-size="12">total blocked</text></g></svg>
