<svg xmlns="http://www.w3.org/2000/svg" role="img" aria-labelledby="title" viewBox="0 0 920 360" width="920" height="360"><title id="title">Per-operation latency (median)</title><rect width="100%" height="100%" fill="#fcfcfb"/><g font-family="system-ui,-apple-system,BlinkMacSystemFont,Segoe UI,sans-serif"><text x="20" y="24" fill="#0b0b0b" font-size="14" font-weight="700">Per-operation latency (median)</text><g aria-label="Legend" font-size="12" fill="#52514e"><line x1="560" x2="578" y1="20" y2="20" stroke="#eb6834" stroke-width="3"/><text x="584" y="24">JS thread baseline</text><line x1="742" x2="760" y1="20" y2="20" stroke="#2a78d6" stroke-width="3"/><text x="766" y="24">Worklet (this library)</text></g><text x="20" y="54" fill="#0b0b0b" font-size="13" font-weight="700">iOS</text><text x="20" y="70" fill="#52514e" font-size="12">iPhone simulator · 2026-09-05</text><g aria-label="Y axis"><line x1="62" x2="444" y1="308" y2="308" stroke="#e6e5e1"/><text x="56" y="312" text-anchor="end" fill="#52514e" font-size="12" data-axis-tick="0">0</text><line x1="62" x2="444" y1="236" y2="236" stroke="#e6e5e1"/><text x="56" y="240" text-anchor="end" fill="#52514e" font-size="12" data-axis-tick="50">50</text><line x1="62" x2="444" y1="164" y2="164" stroke="#e6e5e1"/><text x="56" y="168" text-anchor="end" fill="#52514e" font-size="12" data-axis-tick="100">100</text><line x1="62" x2="444" y1="92" y2="92" stroke="#e6e5e1"/><text x="56" y="96" text-anchor="end" fill="#52514e" font-size="12" data-axis-tick="150">150</text><text transform="translate(28 210) rotate(-90)" fill="#52514e" font-size="12">ms</text></g><path d="M102.66666666666666,308V250.4763009738922Q102.66666666666666,246.4763009738922 106.66666666666666,246.4763009738922H120.66666666666666Q124.66666666666666,246.4763009738922 124.66666666666666,250.4763009738922V308Z" fill="#eb6834" aria-label="JS thread baseline: 42.7 ms"/><text x="113.66666666666666" y="241.4763009738922" text-anchor="middle" fill="#0b0b0b" font-size="12">42.7 ms</text><path d="M126.66666666666666,308V156.75132041931153Q126.66666666666666,152.75132041931153 130.66666666666666,152.75132041931153H144.66666666666666Q148.66666666666666,152.75132041931153 148.66666666666666,156.75132041931153V308Z" fill="#2a78d6" aria-label="Worklet (this library): 107.8 ms"/><text x="137.66666666666666" y="147.75132041931153" text-anchor="middle" fill="#0b0b0b" font-size="12">107.8 ms</text><text x="125.66666666666666" y="330" text-anchor="middle" fill="#52514e" font-size="12">insert 500</text><path d="M230,308V288.5485200405121Q230,284.5485200405121 234,284.5485200405121H248Q252,284.5485200405121 252,288.5485200405121V308Z" fill="#eb6834" aria-label="JS thread baseline: 16.3 ms"/><text x="232" y="267.9915204811096" text-anchor="start" fill="#0b0b0b" font-size="12">16.3 ms</text><path d="M254,308V292.9915204811096Q254,288.9915204811096 258,288.9915204811096H272Q276,288.9915204811096 276,292.9915204811096V308Z" fill="#2a78d6" aria-label="Worklet (this library): 13.2 ms"/><text x="274" y="283.9915204811096" text-anchor="end" fill="#0b0b0b" font-size="12">13.2 ms</text><text x="253" y="330" text-anchor="middle" fill="#52514e" font-size="12">10 queries</text><path d="M357.3333333333333,308V286.9451995182037Q357.3333333333333,282.9451995182037 361.3333333333333,282.9451995182037H375.3333333333333Q379.3333333333333,282.9451995182037 379.3333333333333,286.9451995182037V308Z" fill="#eb6834" aria-label="JS thread baseline: 17.4 ms"/><text x="368.3333333333333" y="277.9451995182037" text-anchor="middle" fill="#0b0b0b" font-size="12">17.4 ms</text><path d="M381.3333333333333,308V251.21172054290773Q381.3333333333333,247.21172054290773 385.3333333333333,247.21172054290773H399.3333333333333Q403.3333333333333,247.21172054290773 403.3333333333333,251.21172054290773V308Z" fill="#2a78d6" aria-label="Worklet (this library): 42.2 ms"/><text x="392.3333333333333" y="242.21172054290773" text-anchor="middle" fill="#0b0b0b" font-size="12">42.2 ms</text><text x="380.3333333333333" y="330" text-anchor="middle" fill="#52514e" font-size="12">reactive +200</text><text x="470" y="54" fill="#0b0b0b" font-size="13" font-weight="700">Android</text><text x="470" y="70" fill="#52514e" font-size="12">Pixel Tablet API 35 emulator · 2026-09-05</text><g aria-label="Y axis"><line x1="512" x2="894" y1="308" y2="308" stroke="#e6e5e1"/><text x="506" y="312" text-anchor="end" fill="#52514e" font-size="12" data-axis-tick="0">0</text><line x1="512" x2="894" y1="236" y2="236" stroke="#e6e5e1"/><text x="506" y="240" text-anchor="end" fill="#52514e" font-size="12" data-axis-tick="50">50</text><line x1="512" x2="894" y1="164" y2="164" stroke="#e6e5e1"/><text x="506" y="168" text-anchor="end" fill="#52514e" font-size="12" data-axis-tick="100">100</text><line x1="512" x2="894" y1="92" y2="92" stroke="#e6e5e1"/><text x="506" y="96" text-anchor="end" fill="#52514e" font-size="12" data-axis-tick="150">150</text><text transform="translate(478 210) rotate(-90)" fill="#52514e" font-size="12">ms</text></g><path d="M552.6666666666666,308V248.72022095996886Q552.6666666666666,244.72022095996886 556.6666666666666,244.72022095996886H570.6666666666666Q574.6666666666666,244.72022095996886 574.6666666666666,248.72022095996886V308Z" fill="#eb6834" aria-label="JS thread baseline: 43.9 ms"/><text x="563.6666666666666" y="239.72022095996886" text-anchor="middle" fill="#0b0b0b" font-size="12">43.9 ms</text><path d="M576.6666666666666,308V146.15195999991147Q576.6666666666666,142.15195999991147 580.6666666666666,142.15195999991147H594.6666666666666Q598.6666666666666,142.15195999991147 598.6666666666666,146.15195999991147V308Z" fill="#2a78d6" aria-label="Worklet (this library): 115.2 ms"/><text x="587.6666666666666" y="137.15195999991147" text-anchor="middle" fill="#0b0b0b" font-size="12">115.2 ms</text><text x="575.6666666666666" y="330" text-anchor="middle" fill="#52514e" font-size="12">insert 500</text><path d="M680,308V292.78590000014754Q680,288.78590000014754 684,288.78590000014754H698Q702,288.78590000014754 702,292.78590000014754V308Z" fill="#eb6834" aria-label="JS thread baseline: 13.3 ms"/><text x="682" y="271.19677903993056" text-anchor="start" fill="#0b0b0b" font-size="12">13.3 ms</text><path d="M704,308V296.19677903993056Q704,292.19677903993056 708,292.19677903993056H722Q726,292.19677903993056 726,296.19677903993056V308Z" fill="#2a78d6" aria-label="Worklet (this library): 11 ms"/><text x="724" y="287.19677903993056" text-anchor="end" fill="#0b0b0b" font-size="12">11 ms</text><text x="703" y="330" text-anchor="middle" fill="#52514e" font-size="12">10 queries</text><path d="M807.3333333333333,308V293.9655595199391Q807.3333333333333,289.9655595199391 811.3333333333333,289.9655595199391H825.3333333333333Q829.3333333333333,289.9655595199391 829.3333333333333,293.9655595199391V308Z" fill="#eb6834" aria-label="JS thread baseline: 12.5 ms"/><text x="818.3333333333333" y="284.9655595199391" text-anchor="middle" fill="#0b0b0b" font-size="12">12.5 ms</text><path d="M831.3333333333333,308V253.40538047986104Q831.3333333333333,249.40538047986104 835.3333333333333,249.40538047986104H849.3333333333333Q853.3333333333333,249.40538047986104 853.3333333333333,253.40538047986104V308Z" fill="#2a78d6" aria-label="Worklet (this library): 40.7 ms"/><text x="842.3333333333333" y="244.40538047986104" text-anchor="middle" fill="#0b0b0b" font-size="12">40.7 ms</text><text x="830.3333333333333" y="330" text-anchor="middle" fill="#52514e" font-size="12">reactive +200</text></g></svg>
